<svg xmlns="http://www.w3.org/2000/svg" viewBox="0 0 512.00 512.00" data-guides="{&quot;vertical&quot;:[],&quot;horizontal&quot;:[]}"><defs><linearGradient id="tSvgGradient19c93fe0b4d" x1="-37.99" x2="-37.99" y1="297.64" y2="27.64" fill="rgb(0, 0, 0)" gradientUnits="userSpaceOnUse"><stop offset="0" stop-color="hsl(205.27200000000002,52.78%,57.65%)" stop-opacity="1"/><stop offset="0.55" stop-color="hsl(204.48,50.2%,51.18000000000001%)" stop-opacity="1"/><stop offset="1" stop-color="hsl(205.416,52.68000000000001%,43.919999999999995%)" stop-opacity="1"/></linearGradient><linearGradient id="tSvgGradient59e4c55867" x1="-81.49" x2="-81.49" y1="279.64" y2="220.64" fill="rgb(0, 0, 0)" gradientUnits="userSpaceOnUse"><stop offset="0" stop-color="hsl(204.58800000000002,53.04%,54.900000000000006%)" stop-opacity="1"/><stop offset="1" stop-color="hsl(204.33599999999998,54.15%,40.2%)" stop-opacity="1"/></linearGradient><linearGradient id="tSvgGradient183a087fa6c" x1="39.01" x2="39.01" y1="50.64" y2="-2.36" fill="rgb(0, 0, 0)" gradientUnits="userSpaceOnUse"><stop offset="0" stop-color="hsl(204.58800000000002,53.04%,54.900000000000006%)" stop-opacity="1"/><stop offset="1" stop-color="hsl(204.33599999999998,54.15%,40.2%)" stop-opacity="1"/></linearGradient><linearGradient id="tSvgGradient2875903aab" x1="200.00" x2="200.00" y1="423.00" y2="325.00" fill="rgb(0, 0, 0)" gradientUnits="userSpaceOnUse"><stop offset="0" stop-color="hsl(204.768,57.269999999999996%,43.14%)" stop-opacity="1"/><stop offset="1" stop-color="hsl(205.09199999999998,63.949999999999996%,33.73%)" stop-opacity="1"/></linearGradient><linearGradient id="tSvgGradienta57c5453db" x1="376.00" x2="376.00" y1="132.00" y2="76.00" fill="rgb(0, 0, 0)" gradientUnits="userSpaceOnUse"><stop offset="0" stop-color="hsl(204.768,57.269999999999996%,43.14%)" stop-opacity="1"/><stop offset="1" stop-color="hsl(205.09199999999998,63.949999999999996%,33.73%)" stop-opacity="1"/></linearGradient><linearGradient id="tSvgGradient1d7917ee9b" x1="275.02" x2="275.02" y1="469.38" y2="117.00" fill="rgb(0, 0, 0)" gradientUnits="userSpaceOnUse"><stop offset="0" stop-color="hsl(204.66,56.02%,62.55%)" stop-opacity="1"/><stop offset="0.55" stop-color="hsl(204.48,50.2%,51.18000000000001%)" stop-opacity="1"/><stop offset="1" stop-color="hsl(205.09199999999998,53.92%,40%)" stop-opacity="1"/></linearGradient><linearGradient id="tSvgGradient12631ec86f5" x1="220.05" x2="220.05" y1="431.00" y2="349.00" fill="rgb(0, 0, 0)" gradientUnits="userSpaceOnUse"><stop offset="0" stop-color="hsl(205.30800000000002,58.620000000000005%,34.12%)" stop-opacity="1"/><stop offset="1" stop-color="hsl(205.704,66.42%,26.86%)" stop-opacity="1"/></linearGradient></defs><path alignment-baseline="" baseline-shift="" fill="url(#tSvgGradient2875903aab)" cx="200" cy="374" rx="42" ry="49" id="tSvg15f0cf4a3c0" title="Ellipse 2" fill-opacity="1" stroke="none" stroke-opacity="1" d="M200.004 325.0026C223.2 325.0026 242.004 346.9406 242.004 374.0026C242.004 401.0645 223.2 423.0026 200.004 423.0026C176.8081 423.0026 158.004 401.0645 158.004 374.0026C158.004 346.9406 176.8081 325.0026 200.004 325.0026Z" style="transform-origin: 200px 374px 0px;"/><path alignment-baseline="" baseline-shift="" fill="url(#tSvgGradienta57c5453db)" cx="316" cy="99" r="28" id="tSvg46d36453ce" title="Ellipse 3" fill-opacity="1" stroke="none" stroke-opacity="1" d="M376.0041 76.0028C391.4681 76.0028 404.0041 88.5388 404.0041 104.0028C404.0041 119.4668 391.4681 132.0028 376.0041 132.0028C360.5402 132.0028 348.0041 119.4668 348.0041 104.0028C348.0041 88.5388 360.5402 76.0028 376.0041 76.0028Z" style="transform-origin: 376px 104px 0px;"/><path fill="#ffffff" stroke="none" fill-opacity="1" stroke-width="1" stroke-opacity="1" alignment-baseline="" baseline-shift="" id="tSvgafe4ad1ef4" title="Path 5" d="M196.004 233.0026C208.004 202.0026 218.004 177.0026 236.004 157.0026C255.004 136.0026 280.004 126.0026 311.004 126.0026C350.004 126.0026 382.004 143.0026 404.004 176.0026C357.004 143.0026 296.004 146.0026 252.004 188.0026C224.004 214.0026 206.004 249.0026 186.004 278.0026C172.004 299.0026 151.004 314.0026 129.004 321.0026C157.004 304.0026 180.004 277.0026 196.004 233.0026Z"/><path fill="url(#tSvgGradient12631ec86f5)" stroke="none" fill-opacity="1" stroke-width="1" stroke-opacity="1" alignment-baseline="" baseline-shift="" id="tSvg15cc3d79913" title="Path 6" d="M174.088 349.0027C211.088 362.3361 248.088 375.6694 285.088 389.0027C273.088 415.0027 250.088 431.0027 221.088 431.0027C187.088 431.0027 161.088 409.0027 155.088 377.0027C154.088 367.0027 162.088 357.0027 174.088 349.0027Z"/><path fill="url(#tSvgGradient1d7917ee9b)" stroke="none" fill-opacity="1" stroke-width="1" stroke-opacity="1" alignment-baseline="" baseline-shift="" id="tSvg52ae1702c1" title="Path 4" d="M120.004 308.0026C154.004 303.0026 181.004 280.0026 197.004 236.0026C209.004 204.0026 218.004 176.0026 240.004 151.0026C261.004 128.0026 289.004 117.0026 323.004 117.0026C373.004 117.0026 411.004 141.0026 432.004 186.0026C453.004 229.0026 452.004 282.0026 430.004 327.0026C420.004 347.0026 414.004 367.0026 415.004 389.0026C416.004 409.0026 422.004 427.0026 433.004 442.0026C438.004 449.0026 439.004 457.0026 434.004 463.0026C429.004 469.0026 420.004 471.0026 411.004 468.0026C315.004 432.6692 219.004 397.3359 123.004 362.0026C111.004 358.0026 104.004 351.0026 103.004 342.0026C102.004 333.0026 108.004 324.0026 120.004 308.0026Z"/></svg>