<svg xmlns="http://www.w3.org/2000/svg" viewBox="0 0 512.00 512.00" data-guides="{&quot;vertical&quot;:[],&quot;horizontal&quot;:[]}"><defs><linearGradient id="tSvgGradient19c93fe0b4d" x1="173.00" x2="173.00" y1="176.00" y2="-94.00" fill="rgb(0, 0, 0)" gradientUnits="userSpaceOnUse"><stop offset="0" stop-color="hsl(205.27200000000002,52.78%,57.65%)" stop-opacity="1"/><stop offset="0.55" stop-color="hsl(204.48,50.2%,51.18000000000001%)" stop-opacity="1"/><stop offset="1" stop-color="hsl(205.416,52.68000000000001%,43.919999999999995%)" stop-opacity="1"/></linearGradient><linearGradient id="tSvgGradient59e4c55867" x1="129.50" x2="129.50" y1="158.00" y2="99.00" fill="rgb(0, 0, 0)" gradientUnits="userSpaceOnUse"><stop offset="0" stop-color="hsl(204.58800000000002,53.04%,54.900000000000006%)" stop-opacity="1"/><stop offset="1" stop-color="hsl(204.33599999999998,54.15%,40.2%)" stop-opacity="1"/></linearGradient><linearGradient id="tSvgGradient183a087fa6c" x1="250.00" x2="250.00" y1="-71.00" y2="-124.00" fill="rgb(0, 0, 0)" gradientUnits="userSpaceOnUse"><stop offset="0" stop-color="hsl(204.58800000000002,53.04%,54.900000000000006%)" stop-opacity="1"/><stop offset="1" stop-color="hsl(204.33599999999998,54.15%,40.2%)" stop-opacity="1"/></linearGradient><linearGradient id="tSvgGradient2875903aab" x1="410.99" x2="410.99" y1="301.36" y2="203.36" fill="rgb(0, 0, 0)" gradientUnits="userSpaceOnUse"><stop offset="0" stop-color="hsl(204.768,57.269999999999996%,43.14%)" stop-opacity="1"/><stop offset="1" stop-color="hsl(205.09199999999998,63.949999999999996%,33.73%)" stop-opacity="1"/></linearGradient><linearGradient id="tSvgGradienta57c5453db" x1="586.99" x2="586.99" y1="10.36" y2="-45.64" fill="rgb(0, 0, 0)" gradientUnits="userSpaceOnUse"><stop offset="0" stop-color="hsl(204.768,57.269999999999996%,43.14%)" stop-opacity="1"/><stop offset="1" stop-color="hsl(205.09199999999998,63.949999999999996%,33.73%)" stop-opacity="1"/></linearGradient><linearGradient id="tSvgGradient1d7917ee9b" x1="486.01" x2="486.01" y1="347.74" y2="-4.64" fill="rgb(0, 0, 0)" gradientUnits="userSpaceOnUse"><stop offset="0" stop-color="hsl(204.66,56.02%,62.55%)" stop-opacity="1"/><stop offset="0.55" stop-color="hsl(204.48,50.2%,51.18000000000001%)" stop-opacity="1"/><stop offset="1" stop-color="hsl(205.09199999999998,53.92%,40%)" stop-opacity="1"/></linearGradient><linearGradient id="tSvgGradient12631ec86f5" x1="431.04" x2="431.04" y1="309.36" y2="227.36" fill="rgb(0, 0, 0)" gradientUnits="userSpaceOnUse"><stop offset="0" stop-color="hsl(205.30800000000002,58.620000000000005%,34.12%)" stop-opacity="1"/><stop offset="1" stop-color="hsl(205.704,66.42%,26.86%)" stop-opacity="1"/></linearGradient><radialGradient id="tSvgGradientbbcdd71f70" x1="NaN" x2="NaN" y1="NaN" y2="NaN" fill="rgb(0, 0, 0)" cx="0.5" cy="0.5" r="1" transform="translate(-5000, -5000)"><stop offset="0" stop-color="hsl(0,0%,100%)" stop-opacity="1"/><stop offset="1" stop-color="hsl(204.012,55.559999999999995%,94.71000000000001%)" stop-opacity="1"/></radialGradient><linearGradient id="tSvgGradient1987efdaca5" x1="256.00" x2="256.00" y1="336.00" y2="176.00" fill="rgb(0, 0, 0)" gradientUnits="userSpaceOnUse"><stop offset="0" stop-color="hsl(204.768,57.269999999999996%,43.14%)" stop-opacity="1"/><stop offset="1" stop-color="hsl(205.09199999999998,63.949999999999996%,33.73%)" stop-opacity="1"/></linearGradient><linearGradient id="tSvgGradient11d939a480d" x1="256.00" x2="256.00" y1="512.00" y2="0.00" fill="rgb(0, 0, 0)" gradientUnits="userSpaceOnUse"><stop offset="0.000" stop-color="hsl(0,0%,79.61%)" stop-opacity="1.000"/><stop offset="0.550" stop-color="hsl(204.48,50.2%,51.18000000000001%)" stop-opacity="1.000"/><stop offset="1.000" stop-color="hsl(205.09199999999998,53.92%,40%)" stop-opacity="1.000"/></linearGradient><linearGradient id="tSvgGradientc3fb625627" x1="256.00" x2="256.00" y1="512.00" y2="0.00" fill="rgb(0, 0, 0)" gradientUnits="userSpaceOnUse"><stop offset="0" stop-color="hsl(204.66,56.02%,62.55%)" stop-opacity="1"/><stop offset="0.55" stop-color="hsl(204.48,50.2%,51.18000000000001%)" stop-opacity="1"/><stop offset="1" stop-color="hsl(205.09199999999998,53.92%,40%)" stop-opacity="1"/></linearGradient><radialGradient id="tSvgGradient8871afe18" x1="NaN" x2="NaN" y1="NaN" y2="NaN" fill="rgb(0, 0, 0)" cx="0.5" cy="0.5" r="1" transform="translate(-5000, -5000)"><stop offset="0" stop-color="hsl(0,0%,100%)" stop-opacity="1"/><stop offset="1" stop-color="hsl(204.012,55.559999999999995%,94.71000000000001%)" stop-opacity="1"/></radialGradient><linearGradient id="tSvgGradient145899066ed" x1="256.00" x2="256.00" y1="336.00" y2="176.00" fill="rgb(0, 0, 0)" gradientUnits="userSpaceOnUse"><stop offset="0" stop-color="hsl(204.768,57.269999999999996%,43.14%)" stop-opacity="1"/><stop offset="1" stop-color="hsl(205.09199999999998,63.949999999999996%,33.73%)" stop-opacity="1"/></linearGradient></defs><path alignment-baseline="" baseline-shift="" fill="url(#tSvgGradientc3fb625627)" cx="256" cy="256" r="256" id="tSvg1c57217242" title="Ellipse 8" fill-opacity="1" stroke="none" stroke-opacity="1" d="M256 0C397.3849 0 512 114.6151 512 256C512 397.3849 397.3849 512 256 512C114.6151 512 0 397.3849 0 256C0 114.6151 114.6151 0 256 0Z" style="transform-origin: 256px 256px 0px;"/><path fill="url(#tSvgGradient8871afe18)" stroke="none" fill-opacity="1" stroke-width="1" stroke-opacity="1" alignment-baseline="" baseline-shift="" id="tSvg99386e0711" title="Path 8" d="M82 256C130 180 199 146 256 146C313 146 382 180 430 256C382 332 313 366 256 366C199 366 130 332 82 256Z"/><path alignment-baseline="" baseline-shift="" fill="url(#tSvgGradient145899066ed)" cx="256" cy="256" r="80" id="tSvgbfe11d65dd" title="Ellipse 9" fill-opacity="1" stroke="none" stroke-opacity="1" d="M256 176C300.1828 176 336 211.8172 336 256C336 300.1828 300.1828 336 256 336C211.8172 336 176 300.1828 176 256C176 211.8172 211.8172 176 256 176Z" style="transform-origin: 256px 256px 0px;"/><path alignment-baseline="" baseline-shift="" fill="#f5fbff" cx="256" cy="256" r="54" id="tSvg11f00112a04" title="Ellipse 10" fill-opacity="1" stroke="none" stroke-opacity="1" d="M256 202C285.8234 202 310 226.1766 310 256C310 285.8234 285.8234 310 256 310C226.1766 310 202 285.8234 202 256C202 226.1766 226.1766 202 256 202Z" style="transform-origin: 256px 256px 0px;"/></svg>