<?xml version="1.0" encoding="UTF-8" standalone="no"?>
<!DOCTYPE svg PUBLIC "-//W3C//DTD SVG 1.1//EN" "http://www.w3.org/Graphics/SVG/1.1/DTD/svg11.dtd">
<svg xmlns="http://www.w3.org/2000/svg" xmlns:xlink="http://www.w3.org/1999/xlink" version="1.1" width="512" height="512" viewBox="0 0 512 512">
<desc>Created with SVGMaker Editor 3.0.0</desc>
<defs>
</defs>
<g transform="matrix(1 0 0 1 256 242.5)">
<linearGradient id="SVGID_6" gradientUnits="userSpaceOnUse" gradientTransform="matrix(1 0 0 1 0 0)" x1="96" y1="256" x2="416" y2="256">
<stop offset="0%" style="stop-color:rgba(18,184,244,1);"/>
<stop offset="100%" style="stop-color:rgba(90,116,201,1);"/>
</linearGradient>
<path transform=" translate(-256, -242.5)" style="stroke: url(#SVGID_6); stroke-width: 16; stroke-linecap: round; stroke-linejoin: round; fill: none" stroke-linecap="round" d="M 256 76 C 329 76 388 135 388 208 C 388 255 365 294 332 329 L 256 409 L 180 329 C 147 294 124 255 124 208 C 124 135 183 76 256 76 Z"/>
</g>
<g transform="matrix(1 0 0 1 256 210)">
<linearGradient id="SVGID_7" gradientUnits="userSpaceOnUse" gradientTransform="matrix(1 0 0 1 -256 -210)" x1="96" y1="256" x2="416" y2="256">
<stop offset="0%" style="stop-color:rgba(18,184,244,1);"/>
<stop offset="100%" style="stop-color:rgba(90,116,201,1);"/>
</linearGradient>
<circle transform="translate(0,0)" style="stroke: url(#SVGID_7); stroke-width: 16; fill: none" cx="0" cy="0" r="64"/>
</g>
<g transform="matrix(1.16989 0 0 1.0452 256.2976 398.47375)">
<linearGradient id="SVGID_8" gradientUnits="userSpaceOnUse" gradientTransform="matrix(1 0 0 1 0 0)" x1="96" y1="256" x2="416" y2="256">
<stop offset="0%" style="stop-color:rgba(18,184,244,1);"/>
<stop offset="100%" style="stop-color:rgba(90,116,201,1);"/>
</linearGradient>
<path transform=" translate(-256, -384)" style="stroke: url(#SVGID_8); stroke-width: 16; stroke-linecap: round; stroke-linejoin: round; fill: none" stroke-linecap="round" d="M 176 338 L 208 338 L 256 394 L 304 338 L 336 338 L 384 430 L 128 430 L 176 338 Z"/>
</g>
</svg>